<svg width="20" height="24" fill="none" xmlns="http://www.w3.org/2000/svg"><path d="M10.829 2.024c-.082.02-.103.041-.062.054.033.016.271.094.53.18.566.189 1.415.612 1.961.977 1.687 1.124 2.77 2.58 3.078 4.124.188.96-.045 2.81-.493 3.914-.574 1.412-1.383 2.29-3.29 3.558-1.195.796-1.843 1.346-2.278 1.929-.566.763-.862 1.71-.862 2.745.004.582.066 1.001.226 1.477.119.357.43.997.5 1.018.025.008.136-.156.247-.366.254-.492.812-1.066 1.292-1.337.874-.493 2.015-.69 3.587-.616 1.054.05 1.543-.053 1.838-.377.074-.086.164-.226.193-.312.082-.234.066-.722-.041-1.1a2.646 2.646 0 0 1-.078-.328c.008-.004.119-.074.25-.152.583-.345.628-.775.127-1.28l-.225-.23.176-.045c.447-.115.718-.28.763-.476.058-.259-.04-.558-.295-.89-.086-.111-.148-.206-.14-.21.009-.004.267-.057.575-.119.611-.119 1.034-.279 1.202-.464.185-.197.148-.357-.246-1.144-.542-1.092-.648-1.584-.718-3.345a26.413 26.413 0 0 0-.086-1.395c-.21-1.748-.887-2.97-2.356-4.239-.845-.734-1.973-1.255-3.225-1.49-.382-.073-1.94-.114-2.15-.06z" fill="url(#a)"/><path d="M9.454 2.824a1.45 1.45 0 0 0-.726.403c-.143.151-.34.517-.34.631-.005.19-.03.193-.846.165-.427-.013-.919-.025-1.095-.025-.267 0-.325-.012-.341-.074-.119-.361-.279-.554-.57-.69a.972.972 0 0 0-1.15.21c-.307.304-.397.743-.23 1.108l.075.168-.636.57c-.35.317-.714.645-.813.731l-.176.152-.185-.115a1.686 1.686 0 0 0-.373-.172c-.25-.07-.73-.037-.973.07-.267.122-.546.39-.677.664-.098.197-.115.28-.115.6 0 .311.017.405.107.594.148.316.316.497.62.66.242.132.283.14.648.14.398 0 .513-.032.82-.234.115-.073-.049-.213 1.814 1.552l.361.34-.082.177c-.09.2-.106.5-.032.746.065.226.406.567.631.632.374.111.792.02 1.05-.225.108-.103.116-.103.218-.037.058.037.103.053.103.037 0-.02.016-.013.033.012.053.074.427.263.472.234.02-.013.028-.008.016.016-.016.025.14.132.337.242l.365.201-.02.288c-.03.365.081.648.336.874l.172.152-.234.656-.234.657-.283.024c-.771.058-1.182.833-.812 1.519.098.176.353.402.52.46.042.011.025.118-.151 1.05l-.05.266-.204.045c-.271.062-.431.152-.579.32-.189.214-.27.472-.25.76.028.311.123.504.344.701a1.013 1.013 0 0 0 1.642-.484c.148-.505-.058-.956-.579-1.255-.07-.042-.07-.062-.008-.37.037-.18.086-.468.115-.644l.053-.312.234-.045c.591-.12.948-.722.776-1.313-.054-.189-.234-.443-.374-.525l-.11-.066.23-.673.233-.669H8.7c.645 0 1.141-.525 1.071-1.137l-.02-.18.295-.131c.16-.078.591-.271.957-.435l.668-.304.18.205c.104.11.288.255.424.32.209.111.279.123.607.123.336 0 .398-.012.644-.135.28-.135.55-.39.5-.468-.016-.024-.012-.033.013-.02.025.016.086-.066.14-.19.14-.307.14-.86-.005-1.156-.151-.316-.467-.608-.775-.718l-.259-.095.025-.578c.033-.694.058-.887.115-.887.103 0 .472-.209.595-.336.185-.189.267-.415.267-.718a1 1 0 0 0-1.014-.997c-.185 0-.423.065-.492.135-.03.029-.123.07.016.008.041-.024.05-.016.029.017a.078.078 0 0 1-.09.028c-.03-.012-.066-.004-.078.017-.046.078-.128.04-.329-.144a1.6 1.6 0 0 0-.23-.185.473.473 0 0 1-.127-.094c-.053-.05-.266-.226-.476-.394-.209-.168-.377-.316-.377-.328 0-.012.037-.127.086-.25.098-.259.115-.69.033-.932a1.41 1.41 0 0 0-1.638-.94zM8.42 4.601c.054.156.099.308.103.345.004.037-.32.34-.813.75-.45.382-.857.727-.906.772-.087.074-.09.074-.288-.028-.11-.054-.3-.115-.422-.132l-.226-.033-.074-.246a12.472 12.472 0 0 1-.16-.59c-.082-.313-.082-.345-.024-.378.217-.123.414-.386.496-.665.02-.066.11-.07 1.12-.07h1.1l.094.275zm-3.804.464c.09.05.267.098.394.115l.234.029.152.512c.086.284.156.55.156.6.004.049-.057.127-.16.205-.09.065-.164.131-.164.147 0 .017-.033.07-.07.115a.73.73 0 0 0-.119.218l-.045.131-.55-.004a89.626 89.626 0 0 0-.964-.008l-.415-.008-.024-.156a1.628 1.628 0 0 0-.123-.35l-.099-.192.796-.718c.44-.394.805-.718.817-.718.012 0 .094.037.184.082zm7.013.841c.304.242.563.451.57.46.013.008-.003.082-.036.168a1.545 1.545 0 0 0-.054.406c0 .144-.016.271-.045.291-.024.017-.41.206-.857.415l-.817.377-.172-.16a1.153 1.153 0 0 0-.333-.213L9.73 7.6l.03-.54c.011-.296.036-.744.052-.998l.025-.46.16-.024c.18-.033.616-.238.69-.328.045-.054.073-.046.221.073.09.074.419.337.722.583zM8.97 5.352c.095.07.25.148.35.172.098.025.184.054.192.07.008.013-.008.46-.041.99-.029.528-.053.976-.058.992 0 .02-.036.033-.082.033-.147 0-.451.172-.59.336l-.14.165-.776-.284-.771-.279-.025-.266a1.377 1.377 0 0 0-.07-.357.404.404 0 0 1-.049-.111c0-.012.234-.218.526-.46.287-.242.558-.476.603-.517.164-.147.722-.607.742-.607.009 0 .095.057.19.123zM4.88 7.465c.106.017.135.046.171.197.062.222.288.485.505.583.144.066.164.09.148.18-.012.058-.062.395-.11.752l-.091.64-.173.024c-.09.017-.23.066-.303.111-.131.078-.14.078-.222.008-.106-.09-1.998-1.863-1.998-1.87 0-.005.045-.1.102-.21.058-.111.103-.23.103-.259 0-.033.016-.09.037-.127.033-.061.123-.07.874-.057.455.004.89.016.956.028zm7.677.3a.971.971 0 0 0 .238.115l.115.029-.025.537c-.045.89-.057.969-.172.969-.177 0-.538.164-.727.332l-.188.16-.661-.43c-.644-.42-.665-.44-.632-.547a1.88 1.88 0 0 0 .033-.365l.004-.258.862-.41.861-.411.082.094c.046.054.14.136.21.185zm-4.814.365.768.28v.225c0 .279.143.611.32.738.07.05.135.09.147.087.017-.004.066.028.111.074l.086.082-.192 1.017-.197 1.022a.95.95 0 0 1-.185.02l-.177.017-.279-.534a356.05 356.05 0 0 1-.894-1.752l-.62-1.214.148-.169c.086-.09.16-.168.172-.168.013 0 .366.123.792.275zm-.968 1.038.894 1.74.48.936-.102.102-.103.103-.722-.402-.722-.406.025-.25c.045-.452-.165-.862-.534-1.043-.168-.082-.18-.094-.164-.218.012-.073.062-.41.11-.746l.091-.616.144-.024c.078-.013.156-.013.168 0 .016.012.21.385.435.824zm4.341.67c.271.176.497.327.501.332.008.008-.016.098-.053.205-.05.14-.062.291-.05.537l.017.345-.944.427-.948.427-.2-.177c-.108-.098-.223-.18-.251-.18-.033 0-.066-.017-.078-.033-.013-.02.049-.394.135-.833.09-.44.173-.879.189-.981.037-.234.082-.287.238-.287.148 0 .439-.132.542-.247.082-.09.02-.119.902.464z" fill="url(#b)"/><circle cx="13.158" cy="6.894" fill="#4286FF" r="1.28"/><circle cx="12.861" cy="10.873" fill="#4286FF" r="1.42"/><defs><linearGradient id="a" x1="11.989" y1="18.481" x2="19.597" y2="4.798" gradientUnits="userSpaceOnUse"><stop stop-color="#743BFF"/><stop offset="1" stop-color="#349BFF"/></linearGradient><linearGradient id="b" x1="3.783" y1="17.245" x2="8.777" y2="3.329" gradientUnits="userSpaceOnUse"><stop stop-color="#743BFF"/><stop offset="1" stop-color="#349BFF"/></linearGradient></defs></svg>